<?xml version="1.0" encoding="UTF-8"?>
<svg xmlns="http://www.w3.org/2000/svg" xmlns:xlink="http://www.w3.org/1999/xlink" viewBox="0 0 48 48" width="48px" height="48px">
<g id="surface309952749">
<path style=" stroke:none;fill-rule:nonzero;fill:rgb(100%,100%,100%);fill-opacity:1;" d="M 24 48 C 10.746094 48 0 37.253906 0 24 C 0 10.746094 10.746094 0 24 0 C 37.253906 0 48 10.746094 48 24 C 48 37.253906 37.253906 48 24 48 Z M 24 48 "/>
<path style=" stroke:none;fill-rule:nonzero;fill:rgb(87.843138%,87.843138%,87.843138%);fill-opacity:1;" d="M 7.964844 38.300781 L 40.035156 38.300781 C 41.707031 38.300781 43.066406 36.941406 43.066406 35.265625 L 43.066406 12.734375 C 43.066406 11.058594 41.707031 9.699219 40.035156 9.699219 L 7.964844 9.699219 C 6.292969 9.699219 4.933594 11.058594 4.933594 12.734375 L 4.933594 35.265625 C 4.933594 36.941406 6.292969 38.300781 7.964844 38.300781 Z M 7.964844 38.300781 "/>
<path style=" stroke:none;fill-rule:nonzero;fill:rgb(85.09804%,85.09804%,85.09804%);fill-opacity:1;" d="M 25.734375 38.300781 L 40.035156 38.300781 C 41.707031 38.300781 43.066406 36.941406 43.066406 35.265625 L 43.066406 12.734375 C 43.066406 11.058594 41.707031 9.699219 40.035156 9.699219 L 7.964844 9.699219 C 6.292969 9.699219 4.933594 11.058594 4.933594 12.734375 Z M 25.734375 38.300781 "/>
<path style=" stroke:none;fill-rule:nonzero;fill:rgb(93.333334%,93.333334%,93.333334%);fill-opacity:1;" d="M 9.046875 38.300781 L 40.035156 38.300781 C 41.707031 38.300781 43.066406 36.941406 43.066406 35.265625 L 43.066406 13.167969 Z M 9.046875 38.300781 "/>
<path style=" stroke:none;fill-rule:nonzero;fill:rgb(87.843138%,87.843138%,87.843138%);fill-opacity:1;" d="M 25.511719 38.300781 L 40.035156 38.300781 C 41.707031 38.300781 43.066406 36.941406 43.066406 35.265625 L 43.066406 13.167969 L 19.46875 30.601562 Z M 25.511719 38.300781 "/>
<path style=" stroke:none;fill-rule:nonzero;fill:rgb(79.215688%,21.568628%,21.568628%);fill-opacity:1;" d="M 40.035156 11.433594 L 7.964844 11.433594 C 6.292969 11.433594 4.933594 11.058594 4.933594 12.734375 L 4.933594 35.265625 C 4.933594 36.941406 6.292969 38.300781 7.964844 38.300781 L 9.265625 38.300781 L 9.265625 13.601562 L 38.734375 13.601562 L 38.734375 38.300781 L 40.035156 38.300781 C 41.707031 38.300781 43.066406 36.941406 43.066406 35.265625 L 43.066406 12.734375 C 43.066406 11.058594 41.707031 11.433594 40.035156 11.433594 Z M 40.035156 11.433594 "/>
<path style=" stroke:none;fill-rule:nonzero;fill:rgb(96.078432%,96.078432%,96.078432%);fill-opacity:1;" d="M 40.035156 9.699219 L 7.964844 9.699219 C 6.292969 9.699219 4.933594 11.03125 4.933594 12.734375 C 4.933594 13.777344 6.25 14.691406 6.25 14.691406 L 24 27.253906 L 41.75 14.691406 C 41.75 14.691406 43.066406 13.777344 43.066406 12.734375 C 43.066406 11.03125 41.707031 9.699219 40.035156 9.699219 Z M 40.035156 9.699219 "/>
<path style=" stroke:none;fill-rule:nonzero;fill:rgb(90.980393%,30.980393%,29.411766%);fill-opacity:1;" d="M 40.679688 9.769531 L 24 21.398438 L 7.320312 9.769531 C 5.957031 10.0625 4.933594 11.257812 4.933594 12.734375 C 4.933594 13.777344 6.25 14.691406 6.25 14.691406 L 24 27.253906 L 41.75 14.691406 C 41.75 14.691406 43.066406 13.777344 43.066406 12.734375 C 43.066406 11.257812 42.042969 10.0625 40.679688 9.769531 Z M 40.679688 9.769531 "/>
</g>
</svg>
