<svg class="animated" id="freepik_stories-womens-equality-day" xmlns="http://www.w3.org/2000/svg" viewBox="0 0 500 500" version="1.1" xmlns:xlink="http://www.w3.org/1999/xlink" xmlns:svgjs="http://svgjs.com/svgjs"><style>svg#freepik_stories-womens-equality-day:not(.animated) .animable {opacity: 0;}svg#freepik_stories-womens-equality-day.animated #freepik--background-simple--inject-512 {animation: 1s 1 forwards cubic-bezier(.36,-0.01,.5,1.38) slideRight;animation-delay: 0s;}svg#freepik_stories-womens-equality-day.animated #freepik--Shadow--inject-512 {animation: 1s 1 forwards cubic-bezier(.36,-0.01,.5,1.38) slideUp;animation-delay: 0s;}svg#freepik_stories-womens-equality-day.animated #freepik--Street--inject-512 {animation: 1s 1 forwards cubic-bezier(.36,-0.01,.5,1.38) slideLeft;animation-delay: 0s;}svg#freepik_stories-womens-equality-day.animated #freepik--character-2--inject-512 {animation: 1s 1 forwards cubic-bezier(.36,-0.01,.5,1.38) zoomOut;animation-delay: 0s;}svg#freepik_stories-womens-equality-day.animated #freepik--character-3--inject-512 {animation: 1s 1 forwards cubic-bezier(.36,-0.01,.5,1.38) zoomOut;animation-delay: 0s;}svg#freepik_stories-womens-equality-day.animated #freepik--character-1--inject-512 {animation: 1s 1 forwards cubic-bezier(.36,-0.01,.5,1.38) zoomIn;animation-delay: 0s;}svg#freepik_stories-womens-equality-day.animated #freepik--Texts--inject-512 {animation: 1s 1 forwards cubic-bezier(.36,-0.01,.5,1.38) lightSpeedLeft;animation-delay: 0s;}            @keyframes slideRight {                0% {                    opacity: 0;                    transform: translateX(30px);                }                100% {                    opacity: 1;                    transform: translateX(0);                }            }                    @keyframes slideUp {                0% {                    opacity: 0;                    transform: translateY(30px);                }                100% {                    opacity: 1;                    transform: inherit;                }            }                    @keyframes slideLeft {                0% {                    opacity: 0;                    transform: translateX(-30px);                }                100% {                    opacity: 1;                    transform: translateX(0);                }            }                    @keyframes zoomOut {                0% {                    opacity: 0;                    transform: scale(1.5);                }                100% {                    opacity: 1;                    transform: scale(1);                }            }                    @keyframes zoomIn {                0% {                    opacity: 0;                    transform: scale(0.5);                }                100% {                    opacity: 1;                    transform: scale(1);                }            }                    @keyframes lightSpeedLeft {              from {                transform: translate3d(-50%, 0, 0) skewX(20deg);                opacity: 0;              }              60% {                transform: skewX(-10deg);                opacity: 1;              }              80% {                transform: skewX(2deg);              }              to {                opacity: 1;                transform: translate3d(0, 0, 0);              }            }        .animator-hidden { display: none; }</style><g id="freepik--background-simple--inject-512" class="animable" style="transform-origin: 247.317px 227.692px;"><path d="M252.62,79.38c25.69-3.85,43.59,8.45,54.32,31.16,9.61,20.34,13.76,42.89,24.49,62.75,7.68,14.21,20,25.21,34.5,32.17,11.88,5.71,25.72,5.67,37.45,11.63,36.76,18.67,26,63.21,4.77,89.37-40.31,49.73-109.25,67.5-170.6,70-44.05,1.8-90.06-6.06-124.47-35.59C93.45,324,76.53,301.64,69.79,276.35c-6-22.59-3.38-56.27,21-67,16.7-7.36,35.69-3.81,53.31-4.77,8.9-.49,18.17-2.76,24.58-9,13.16-12.73,15.4-36.74,20.82-53.51C199.49,111.28,218.67,84.46,252.62,79.38Z" style="fill: rgb(224, 130, 157); transform-origin: 247.317px 227.692px;" id="el6lody23ajmx" class="animable"></path><g id="el4u8m5b25a73"><path d="M252.62,79.38c25.69-3.85,43.59,8.45,54.32,31.16,9.61,20.34,13.76,42.89,24.49,62.75,7.68,14.21,20,25.21,34.5,32.17,11.88,5.71,25.72,5.67,37.45,11.63,36.76,18.67,26,63.21,4.77,89.37-40.31,49.73-109.25,67.5-170.6,70-44.05,1.8-90.06-6.06-124.47-35.59C93.45,324,76.53,301.64,69.79,276.35c-6-22.59-3.38-56.27,21-67,16.7-7.36,35.69-3.81,53.31-4.77,8.9-.49,18.17-2.76,24.58-9,13.16-12.73,15.4-36.74,20.82-53.51C199.49,111.28,218.67,84.46,252.62,79.38Z" style="fill: rgb(255, 255, 255); opacity: 0.9; transform-origin: 247.317px 227.692px;" class="animable"></path></g></g><g id="freepik--Shadow--inject-512" class="animable" style="transform-origin: 250px 416.24px;"><ellipse id="freepik--path--inject-512" cx="250" cy="416.24" rx="193.89" ry="11.32" style="fill: rgb(245, 245, 245); transform-origin: 250px 416.24px;" class="animable"></ellipse></g><g id="freepik--Street--inject-512" class="animable" style="transform-origin: 250px 401.284px;"><path d="M64.61,393.69H435.39a1.89,1.89,0,0,1,1.89,1.89V412.7a0,0,0,0,1,0,0H62.72a0,0,0,0,1,0,0V395.58A1.89,1.89,0,0,1,64.61,393.69Z" style="fill: rgb(224, 130, 157); transform-origin: 250px 403.195px;" id="elx4xipzmiceo" class="animable"></path><g id="elojzsfud6chc"><path d="M64.61,393.69H435.39a1.89,1.89,0,0,1,1.89,1.89V412.7a0,0,0,0,1,0,0H62.72a0,0,0,0,1,0,0V395.58A1.89,1.89,0,0,1,64.61,393.69Z" style="fill: rgb(255, 255, 255); opacity: 0.5; transform-origin: 250px 403.195px;" class="animable"></path></g><g id="elb2h32jkkyem"><rect x="410.91" y="397.49" width="24.53" height="12.88" style="fill: rgb(255, 255, 255); opacity: 0.2; transform-origin: 423.175px 403.93px;" class="animable"></rect></g><g id="elegld2kut8l"><rect x="385.07" y="396.27" width="24.53" height="12.88" style="fill: rgb(255, 255, 255); opacity: 0.2; transform-origin: 397.335px 402.71px;" class="animable"></rect></g><g id="elrvvvslboyp"><rect x="368.05" y="400.96" width="15.97" height="8.19" style="fill: rgb(255, 255, 255); opacity: 0.2; transform-origin: 376.035px 405.055px;" class="animable"></rect></g><g id="elrre5pyoqgek"><rect x="68.75" y="402.02" width="15.97" height="8.19" style="fill: rgb(255, 255, 255); opacity: 0.2; transform-origin: 76.735px 406.115px;" class="animable"></rect></g><g id="el3fjg04ey0a5"><rect x="349.99" y="396.86" width="16.79" height="11.21" style="fill: rgb(255, 255, 255); opacity: 0.2; transform-origin: 358.385px 402.465px;" class="animable"></rect></g><g id="elqa60bj0rzi"><rect x="337.33" y="395.35" width="11.42" height="11.21" style="fill: rgb(255, 255, 255); opacity: 0.2; transform-origin: 343.04px 400.955px;" class="animable"></rect></g><g id="elffah8vljdyg"><rect x="86.57" y="397.49" width="11.42" height="11.21" style="fill: rgb(255, 255, 255); opacity: 0.2; transform-origin: 92.28px 403.095px;" class="animable"></rect></g><g id="elh6s60zfv1sh"><rect x="289.2" y="397.49" width="11.42" height="11.21" style="fill: rgb(255, 255, 255); opacity: 0.2; transform-origin: 294.91px 403.095px;" class="animable"></rect></g><g id="el55df05oxcww"><rect x="301.2" y="395.35" width="11.42" height="7.75" style="fill: rgb(255, 255, 255); opacity: 0.2; transform-origin: 306.91px 399.225px;" class="animable"></rect></g><g id="el9onkuy09yr"><rect x="317.35" y="398.33" width="18.81" height="11.21" style="fill: rgb(255, 255, 255); opacity: 0.2; transform-origin: 326.755px 403.935px;" class="animable"></rect></g><g id="eljk7oyb4dn6b"><rect x="269.1" y="396.86" width="18.81" height="11.21" style="fill: rgb(255, 255, 255); opacity: 0.2; transform-origin: 278.505px 402.465px;" class="animable"></rect></g><g id="elrj0ymd6ilg"><rect x="370.8" y="396.27" width="12.11" height="3.61" style="fill: rgb(255, 255, 255); opacity: 0.2; transform-origin: 376.855px 398.075px;" class="animable"></rect></g><g id="ela08o6q2imbd"><rect x="68.75" y="396.52" width="12.11" height="3.61" style="fill: rgb(255, 255, 255); opacity: 0.2; transform-origin: 74.805px 398.325px;" class="animable"></rect></g><g id="el12qkq6m45jno"><rect x="303.04" y="404.76" width="12.11" height="3.61" style="fill: rgb(255, 255, 255); opacity: 0.2; transform-origin: 309.095px 406.565px;" class="animable"></rect></g><g id="elzxqgmzhy5pb"><rect x="242.91" y="397.49" width="24.53" height="12.88" style="fill: rgb(255, 255, 255); opacity: 0.2; transform-origin: 255.175px 403.93px;" class="animable"></rect></g><g id="elbz9pqg36oa8"><rect x="217.07" y="396.27" width="24.53" height="12.88" style="fill: rgb(255, 255, 255); opacity: 0.2; transform-origin: 229.335px 402.71px;" class="animable"></rect></g><g id="elwjmfut9kpij"><rect x="200.05" y="400.96" width="15.97" height="8.19" style="fill: rgb(255, 255, 255); opacity: 0.2; transform-origin: 208.035px 405.055px;" class="animable"></rect></g><g id="elstaz5nio5t"><rect x="181.99" y="396.86" width="16.79" height="11.21" style="fill: rgb(255, 255, 255); opacity: 0.2; transform-origin: 190.385px 402.465px;" class="animable"></rect></g><g id="elg606sxct1t"><rect x="169.33" y="395.35" width="11.42" height="11.21" style="fill: rgb(255, 255, 255); opacity: 0.2; transform-origin: 175.04px 400.955px;" class="animable"></rect></g><g id="elgm5pp9ss6bi"><rect x="121.2" y="397.49" width="11.42" height="11.21" style="fill: rgb(255, 255, 255); opacity: 0.2; transform-origin: 126.91px 403.095px;" class="animable"></rect></g><g id="elpv9r06ghc5b"><rect x="133.2" y="395.35" width="11.42" height="7.75" style="fill: rgb(255, 255, 255); opacity: 0.2; transform-origin: 138.91px 399.225px;" class="animable"></rect></g><g id="elg33w8m5mw6e"><rect x="149.35" y="398.33" width="18.81" height="11.21" style="fill: rgb(255, 255, 255); opacity: 0.2; transform-origin: 158.755px 403.935px;" class="animable"></rect></g><g id="el7zv8kyp6if7"><rect x="101.1" y="396.86" width="18.81" height="11.21" style="fill: rgb(255, 255, 255); opacity: 0.2; transform-origin: 110.505px 402.465px;" class="animable"></rect></g><g id="elqjrt2lmn0fr"><rect x="202.8" y="396.27" width="12.11" height="3.61" style="fill: rgb(255, 255, 255); opacity: 0.2; transform-origin: 208.855px 398.075px;" class="animable"></rect></g><g id="el79swfeqxkib"><rect x="135.04" y="404.76" width="12.11" height="3.61" style="fill: rgb(255, 255, 255); opacity: 0.2; transform-origin: 141.095px 406.565px;" class="animable"></rect></g><path d="M332.71,413.87s-7.95-15.52-5.95-17,5.95,13,5.95,11.84-.22-20.86,3.45-20.08,0,19,0,19,4.94-9.28,6.88-8.58-5.71,11.74-5.71,11.74,4.56-2.76,5.71-2.55-5.71,5.72-5.71,5.72Z" style="fill: rgb(224, 130, 157); transform-origin: 334.896px 401.284px;" id="elj4roecso7kn" class="animable"></path><path d="M111.64,413.87s-9-8-6.34-9.31,6,6,6.34,4.91-1.77-11.21,3.25-10.51,0,10.51,0,10.51,3.71-4,5-3.39-4,7.79-4,7.79Z" style="fill: rgb(224, 130, 157); transform-origin: 112.451px 406.398px;" id="eli1zq5q8kkqq" class="animable"></path></g><g id="freepik--character-2--inject-512" class="animable" style="transform-origin: 280.012px 282.954px;"><path d="M229.92,193.69l-3.68-4.1s-1.18-2.53-2.34-3.12-9.08,0-9.08,0l1,6.07,6.55.21,1.53-.81,2.47,3.87Z" style="fill: rgb(228, 137, 123); transform-origin: 222.37px 191.009px;" id="elfooswid548m" class="animable"></path><path d="M257.44,191.19c-2-.17-15,13.54-16.15,13.8s-13.63-14.81-13.63-14.81l-3.76,4s13.29,19.41,16.27,19.41,18.22-10.49,18.22-10.49Z" style="fill: rgb(224, 130, 157); transform-origin: 241.145px 201.885px;" id="elrwx75lquoj" class="animable"></path><g id="elncjeunxncy"><path d="M258.38,203.09l-1.7,1.15c-1.91,1.28-5.18,3.44-8.34,5.35-3.53,2.14-6.92,4-8.17,4-3,0-16.27-19.41-16.27-19.41l3.76-4s12.53,15.08,13.63,14.81,14.14-14,16.15-13.8Z" style="fill: rgb(255, 255, 255); opacity: 0.6; isolation: isolate; transform-origin: 241.14px 201.885px;" class="animable"></path></g><g id="el5tv37yws0ri"><path d="M256.68,204.24c-1.91,1.28-5.18,3.44-8.34,5.35a23.66,23.66,0,0,1,6.42-11.25C256.84,198.44,257.22,201.14,256.68,204.24Z" style="opacity: 0.2; isolation: isolate; transform-origin: 252.62px 203.965px;" class="animable"></path></g><path d="M268.4,188.29c1.91-1.84,13-1.69,16.41.23l-2.45,9.4-15.93,1S265.17,191.39,268.4,188.29Z" style="fill: rgb(224, 130, 157); transform-origin: 275.499px 192.956px;" id="elnu1g1ukbgd" class="animable"></path><path d="M256.48,242.17l30.2,2.34s.42-18,2.82-27.44c.79-3,1.77-6.45,3-10.42.53-1.68,1.11-3.45,1.74-5.35s1.21-3.64,1.9-5.61a88.66,88.66,0,0,0-12.63-3.05,97.8,97.8,0,0,0-13.67-1.45c-5.92,0-12.72.63-12.72.63s-.5,4-1.12,10.22C255.46,207.94,255.26,220.74,256.48,242.17Z" style="fill: rgb(38, 50, 56); transform-origin: 275.858px 217.85px;" id="elm86o2rq9jwq" class="animable"></path><path d="M272.36,197.92c7.51-1,9.76-4.17,9.76-4.17-3.07-2.89-2.51-7.15-1.73-9.81a15.41,15.41,0,0,1,.93-2.46l-9,1.69a27,27,0,0,1,.35,3.8,11.31,11.31,0,0,1-.26,2.8c-.61,2.7-2.15,2.74-2.15,2.74C268.64,195.47,272.36,197.92,272.36,197.92Z" style="fill: rgb(228, 137, 123); transform-origin: 275.986px 189.7px;" id="elr0fd7tjstsr" class="animable"></path><g id="elww6j3fhvea"><path d="M272.64,187a11.31,11.31,0,0,1-.26,2.8c3.59-.47,6.31-3.34,8-5.83a15.41,15.41,0,0,1,.93-2.46l-9,1.69A27,27,0,0,1,272.64,187Z" style="opacity: 0.2; isolation: isolate; transform-origin: 276.81px 185.655px;" class="animable"></path></g><path d="M274.15,159.21s-2.36-11.8-14.52-9.44-6.48,18.94-4,24.16,2.83,9.46-.11,11.82c0,0,4,1.15,6.13-1.61,0,0-.12,2.55-1.53,3.62,0,0,12.21-4.37,9.11-18.64S274.15,159.21,274.15,159.21Z" style="fill: rgb(38, 50, 56); transform-origin: 263.136px 168.609px;" id="elgpmzwnc1ung" class="animable"></path><path d="M287.13,158.26s6.13.24,7.78,5.43.35,11-8.8,17.18-16.8.11-20.34-4.11-1.77-18.53,8.38-20.22S287.13,158.26,287.13,158.26Z" style="fill: rgb(38, 50, 56); transform-origin: 279.81px 169.788px;" id="eln3jexiosvch" class="animable"></path><path d="M281.28,159.94c7.77,1.13,9.68,5.65,9.09,13.75-.74,10.12-4,16.92-13.4,13.37C264.18,182.25,268.36,158.08,281.28,159.94Z" style="fill: rgb(228, 137, 123); transform-origin: 279.847px 173.925px;" id="el2wsrjj3tbw4" class="animable"></path><path d="M285.4,172.53a16.71,16.71,0,0,0,1.8,3.55,2.16,2.16,0,0,1-2.18.59Z" style="fill: rgb(222, 87, 83); transform-origin: 286.11px 174.644px;" id="eluecnxdeebkj" class="animable"></path><path d="M280.73,171.21c-.07.64-.48,1.12-.91,1.06s-.71-.61-.63-1.25.48-1.12.91-1.07S280.81,170.56,280.73,171.21Z" style="fill: rgb(38, 50, 56); transform-origin: 279.96px 171.111px;" id="el7fs9tndl1bf" class="animable"></path><path d="M279.92,170l1.46-.38S280.54,170.67,279.92,170Z" style="fill: rgb(38, 50, 56); transform-origin: 280.65px 169.922px;" id="elluti7k7f7b" class="animable"></path><path d="M288.72,172c-.08.65-.49,1.12-.91,1.07s-.72-.61-.64-1.25.49-1.12.92-1.07S288.8,171.39,288.72,172Z" style="fill: rgb(38, 50, 56); transform-origin: 287.945px 171.91px;" id="elnkc51m94kn" class="animable"></path><path d="M287.9,170.79l1.46-.38S288.53,171.5,287.9,170.79Z" style="fill: rgb(38, 50, 56); transform-origin: 288.63px 170.72px;" id="elnvxy4b0k44" class="animable"></path><path d="M277.89,166.87a.34.34,0,0,1-.26-.12.34.34,0,0,1,0-.5,4.46,4.46,0,0,1,3.88-.77.37.37,0,0,1,.24.44.35.35,0,0,1-.43.24,3.81,3.81,0,0,0-3.21.61A.34.34,0,0,1,277.89,166.87Z" style="fill: rgb(38, 50, 56); transform-origin: 279.641px 166.098px;" id="eldvas4ifjbb9" class="animable"></path><path d="M290.14,167.75a.38.38,0,0,1-.24-.09,3.34,3.34,0,0,0-2.7-1,.36.36,0,0,1-.14-.7,4,4,0,0,1,3.32,1.17.36.36,0,0,1,0,.5A.34.34,0,0,1,290.14,167.75Z" style="fill: rgb(38, 50, 56); transform-origin: 288.648px 166.841px;" id="eljj541xurki" class="animable"></path><path d="M270.88,171.83S275.44,166,275.6,161c0,0,16.33-4.08,14.83,11.68,0,0,3.51-13.67-9.82-15.92s-16.09,17.34-10,24.16C270.58,180.87,268.05,175.5,270.88,171.83Z" style="fill: rgb(38, 50, 56); transform-origin: 279.191px 168.751px;" id="el71dijbe7qf5" class="animable"></path><path d="M271.91,173.65a3.44,3.44,0,0,0-3.22-3.65c-2.45-.08-4.31,4.7,1.51,6.76C271,177.05,271.64,176.28,271.91,173.65Z" style="fill: rgb(228, 137, 123); transform-origin: 269.13px 173.408px;" id="elyki3dv595m" class="animable"></path><path d="M286.11,155.16s5-2,4.77,2.51-19.09,15.56-28.65,14.86c0,0,2.6-.68,3.42-1.81a11.17,11.17,0,0,1,3.48-14.18C279.07,148.71,286.11,155.16,286.11,155.16Z" style="fill: rgb(38, 50, 56); transform-origin: 276.559px 162.612px;" id="el1w1g7qccqtr" class="animable"></path><path d="M275.53,172.77a.25.25,0,0,1-.23-.16.25.25,0,0,1,.15-.31c12.75-4.38,13.66-13.56,13.67-13.65a.25.25,0,0,1,.49,0c0,.1-.93,9.58-14,14.07Z" style="fill: rgb(38, 50, 56); transform-origin: 282.449px 165.61px;" id="elsp1cglrvahs" class="animable"></path><path d="M283.74,179.52a20.64,20.64,0,0,0-2,2c-.14-.09-.29-.17-.43-.27-1.93-1.21-2.43-2.41-2.39-3.38a2.86,2.86,0,0,1,.41-1.33,2.62,2.62,0,0,1,.47-.64,10.91,10.91,0,0,0,3.31,3.17C283.48,179.37,283.74,179.52,283.74,179.52Z" style="fill: rgb(38, 50, 56); transform-origin: 281.329px 178.71px;" id="eltyd73f7ck6" class="animable"></path><path d="M283.09,179.1l-.61.58c-1.82-1.15-3-2.2-3.17-3.11a2.62,2.62,0,0,1,.47-.64A10.91,10.91,0,0,0,283.09,179.1Z" style="fill: rgb(255, 255, 255); transform-origin: 281.2px 177.805px;" id="eljguyq4vgu0a" class="animable"></path><path d="M281.29,181.28c-1.93-1.21-2.43-2.41-2.39-3.38a7.32,7.32,0,0,1,1.88,1.78A2.73,2.73,0,0,1,281.29,181.28Z" style="fill: rgb(222, 87, 83); transform-origin: 280.094px 179.59px;" id="el9s47cl1dq86" class="animable"></path><path d="M284.81,188.52,278.19,192l1.86,4.57a163.32,163.32,0,0,0,0,39.16l13.33-1.1s6.09-31,2.77-38.92L286,192.14Z" style="fill: rgb(224, 130, 157); transform-origin: 287.665px 212.125px;" id="elnwmf9yi9bmp" class="animable"></path><g id="elb3f0kdzjcm"><path d="M296.72,211.63c-.3,3.39-.74,6.88-1.2,10.09-1,7.16-2.14,12.89-2.14,12.89l-13.33,1.1a162.72,162.72,0,0,1,0-39.16L278.19,192l6.62-3.46,1.18,3.62,10.16,3.55C297.4,198.69,297.32,205,296.72,211.63Z" style="fill: rgb(255, 255, 255); opacity: 0.6; isolation: isolate; transform-origin: 287.666px 212.125px;" class="animable"></path></g><g id="elzugmbowk9zn"><path d="M296.72,211.63c-.3,3.39-.74,6.88-1.2,10.09a35.15,35.15,0,0,1-2-10.42A12.5,12.5,0,0,1,296.72,211.63Z" style="opacity: 0.2; isolation: isolate; transform-origin: 295.12px 216.508px;" class="animable"></path></g><path d="M268.4,188.29l-.59,3.54-1.64,2.63s-9.74,17.65-8.33,36.52l-6.1-1.1s.06-29.73,5.7-38.69l8.78-.43Z" style="fill: rgb(224, 130, 157); transform-origin: 260.07px 209.635px;" id="eliqxbedl7n29" class="animable"></path><g id="elak0x4rai6mn"><path d="M268.4,188.29l-.59,3.54-1.64,2.63s-9.74,17.65-8.33,36.52l-6.1-1.1s.06-29.73,5.7-38.69l8.78-.43Z" style="fill: rgb(255, 255, 255); opacity: 0.6; isolation: isolate; transform-origin: 260.07px 209.635px;" class="animable"></path></g><path d="M294.27,394.63l-4.63,2.72a88.07,88.07,0,0,0-7-8.34h0c-1.34-1.42-2.75-3-4.22-4.68-2.93-3.36-6.1-7.21-9.43-11.34-1-1.22-2-2.46-3-3.73-11.59-14.58-24.13-31.73-28.81-43.32-1.46-3.6-2.17-6.66-1.86-8.95.95-6.93,3.65-17.35,6.73-27.41,4.68-15.39,9.94-30,9.94-30L264.9,281.5s-4,9.47-7.58,19.54c-3.56,9.9-6.77,20.4-5.58,23.13.11.27.26.58.42.92,2.15,4.45,8.09,14.52,14.84,25.66l2.06,3.38c3.63,5.95,7.4,12.05,10.89,17.66,1.36,2.21,2.68,4.34,3.94,6.35C289.83,387.7,294.27,394.63,294.27,394.63Z" style="fill: rgb(228, 137, 123); transform-origin: 264.759px 328.465px;" id="elk8hjauv4c5i" class="animable"></path><g id="elw363daptb48"><path d="M265.7,369.25c6.12,7.69,12,14.67,16.37,19.75.62-3.12,1.26-6.82,1.76-10.86C278.77,370,272.59,360,267,350.75A105,105,0,0,1,265.7,369.25Z" style="opacity: 0.2; isolation: isolate; transform-origin: 274.765px 369.875px;" class="animable"></path></g><path d="M288.79,305.86c-1.6,10.92-3.89,20.81-5.37,26.71-.89,3.54-1.5,5.63-1.5,5.63a294.78,294.78,0,0,1-2,33.59c-.49,4.39-1,8.61-1.57,12.53-2,14.52-4.13,24.94-4.13,24.94l-5.51-.72L269,373l.11-18.85.16-25.65.06-4.47.26-19.5.4-28.76,19.17-8.63C291.68,278.05,290.72,292.7,288.79,305.86Z" style="fill: rgb(228, 137, 123); transform-origin: 279.695px 338.2px;" id="elheul3h09gn" class="animable"></path><g id="el31zpvx7xmjb"><path d="M252,259.59,264.9,281.5s-4,9.47-7.58,19.54c-3.56,9.9-6.77,20.4-5.58,23.13.11.27.26.58.42.92-4.79,1.63-10.44,1.46-15,.84-1.46-3.6-2.17-6.66-1.86-8.95.95-6.93,3.65-17.35,6.73-27.41C246.71,274.18,252,259.59,252,259.59Z" style="opacity: 0.2; isolation: isolate; transform-origin: 250.064px 292.982px;" class="animable"></path></g><g id="el7ufb3kb60w8"><path d="M288.79,305.86c-1.6,10.92-3.89,20.81-5.37,26.71-6.3-2-10.56-5.76-14.14-8.56l.26-19.5.4-28.76,19.17-8.63C291.68,278.05,290.72,292.7,288.79,305.86Z" style="opacity: 0.2; isolation: isolate; transform-origin: 279.975px 299.845px;" class="animable"></path></g><path d="M293.85,391.61c-.57-.41-5.34,6.74-5.34,6.74s1.06,7.45-1.09,12.26,2,4.4,5.51-.16l8.6-11.26C304,396,299.7,395.87,293.85,391.61Z" style="fill: rgb(38, 50, 56); transform-origin: 294.535px 402.82px;" id="elfbffi0e86fg" class="animable"></path><path d="M286.73,403.76a.86.86,0,0,1-.69-.41.92.92,0,0,1-.19-.71,3.62,3.62,0,0,1,1-1.66c-.72.33-1.45.54-1.82.29s-.32-.46-.23-.89a1.29,1.29,0,0,1,.65-.9c1.09-.63,3.1,0,3.2,0l.08,0h0l0,.05h0l0,.07h0v.09c-.13.62-.84,3.71-1.92,4Zm1.49-3.44c-.76.63-1.83,1.67-1.92,2.38a.46.46,0,0,0,.09.37c.22.28.35.25.4.24C287.29,403.19,287.87,401.65,288.22,400.32Zm-1.51-.67a2.15,2.15,0,0,0-1,.22.91.91,0,0,0-.43.61c0,.12-.06.35,0,.41.32.22,1.6-.35,2.75-1.07A6.14,6.14,0,0,0,286.71,399.65Z" style="fill: rgb(224, 130, 157); transform-origin: 286.733px 401.48px;" id="el9l3x2v9j7y" class="animable"></path><path d="M276.2,405.74c0-.7-8.6-.15-8.6-.15s-5.28,5.37-10.4,6.58-2.27,4.28,3.47,4.28h14.17C278.92,416.45,276.37,413,276.2,405.74Z" style="fill: rgb(38, 50, 56); transform-origin: 265.837px 410.917px;" id="elbqzt76w20nt" class="animable"></path><path d="M263.09,407.79a1.18,1.18,0,0,1-.76-.21.84.84,0,0,1-.21-.91.94.94,0,0,1,.46-.58,3.56,3.56,0,0,1,1.93-.21c-.7-.38-1.31-.83-1.34-1.28,0-.29.18-.54.57-.72a1.31,1.31,0,0,1,1.11,0c1.15.48,1.87,2.47,1.91,2.57a.14.14,0,0,1,0,.09h0a.15.15,0,0,1,0,.07h0a.43.43,0,0,1,0,.07h0l-.07.05A10.72,10.72,0,0,1,263.09,407.79Zm.73-1.5a2.09,2.09,0,0,0-1,.19.46.46,0,0,0-.25.3c-.08.34,0,.42.06.45.4.34,2-.14,3.24-.67A10.25,10.25,0,0,0,263.82,406.29Zm.51-2.1a1,1,0,0,0-.4.1c-.12,0-.31.17-.31.28,0,.39,1.25,1.06,2.52,1.54a3.69,3.69,0,0,0-1.47-1.84A.84.84,0,0,0,264.33,404.19Z" style="fill: rgb(224, 130, 157); transform-origin: 264.416px 405.775px;" id="elw4jyk4emrb" class="animable"></path><path d="M255.76,239.41l-3.36,15.8s-15.58,25-22.05,55.06c0,0-.24,7.91,7.67,6.71s11.44,7.19,19.26,7.19,15.68-5.75,22.42,0,19.44,0,19.44,0-.48-59.32-12.7-82.39Z" style="fill: rgb(224, 130, 157); transform-origin: 264.745px 283.068px;" id="elbokn5591n8s" class="animable"></path><g id="ell7cwndais79"><path d="M267.86,243.33a1.55,1.55,0,1,1-1.55-1.55A1.54,1.54,0,0,1,267.86,243.33Z" style="fill: rgb(255, 255, 255); opacity: 0.6; isolation: isolate; transform-origin: 266.31px 243.33px;" class="animable"></path></g><path d="M324.6,227.91,335.09,230s2-2.16,3.19-2.4a47.2,47.2,0,0,1,6.48.27s1,8.05,0,8.72-7.88.39-8.93,0-1.58-2.28-1.58-2.28l-9.65-2Z" style="fill: rgb(159, 91, 83); transform-origin: 334.902px 232.288px;" id="el9qiso2tm1kt" class="animable"></path><path d="M296.14,195.84c3.16,1.16,11.08,24.83,12,25.76s23.32,6.47,23.32,6.47L330,233.93s-23.16-3.89-25.18-5-12.23-19.35-12.23-19.35Z" style="fill: rgb(224, 130, 157); transform-origin: 312.025px 214.885px;" id="elslavs2fhto" class="animable"></path><g id="elzjicdv5usmp"><path d="M296.14,195.84c3.16,1.16,11.08,24.83,12,25.76s23.32,6.47,23.32,6.47L330,233.93s-23.16-3.89-25.18-5-12.23-19.35-12.23-19.35Z" style="fill: rgb(255, 255, 255); opacity: 0.6; isolation: isolate; transform-origin: 312.025px 214.885px;" class="animable"></path></g></g><g id="freepik--character-3--inject-512" class="animable" style="transform-origin: 323.659px 281.709px;"><path d="M314,177.1a16.88,16.88,0,0,1,2.13-.49,7.41,7.41,0,0,0,2.12-.92c2.46-2.07-.79-4.23-.65-7.44s2.23-3.12,2.64-5-2-3.25,0-7c1.48-2.76,3.89-2.62,5.29-3.31s-.5-2.26,3.59-5c3.31-2.19,8.92-.34,9.79,2.17,0,0,3.22-2.5,7.15.56s4.77,6.17,3.66,8.92,4.45,4.91,4.59,7.52-2.11,3-1.13,4.77h0c4.07,2,5.88,5,4.28,7.38s1.35,3.75,3.7,5.83,4.5,3.43,2.22,4.88-2.15,3.08-.23,6.17,0,8.61-3.2,10.12.9,6.19-3.45,9.09-30,8.9-36.59-.77-8-20.3-7.08-22.57c.87-2.06-2.91-4.53-3.28-6.61C309.13,182.92,311.58,178.05,314,177.1Z" style="fill: rgb(38, 50, 56); transform-origin: 336.926px 183.416px;" id="eltiki61ivosm" class="animable"></path><path d="M277,210.89c1.93.38,7.64-1.76,7.92-3,0,0,15.31,7.19,18.62,5.83,1.45-.6,4.16-3.53,6.77-6.63,3.31-4,6.43-8.23,6.43-8.23L316,194.7l-.81-4.52c-2.26.62-12.06,15.45-13.73,16.91s-16.92-4.28-16.92-4.28-1.3-2.13-3.19-2.19-6.2,1.52-7.75,2.22S275,210.51,277,210.89Z" style="fill: rgb(238, 193, 187); transform-origin: 294.953px 202.036px;" id="el20brqzq4sox" class="animable"></path><g id="el8pomp4i43t6"><path d="M310.29,207.1c3.31-4,6.43-8.23,6.43-8.23L316,194.7l-.72.43C312.76,196.81,310.73,200.45,310.29,207.1Z" style="opacity: 0.2; isolation: isolate; transform-origin: 313.505px 200.9px;" class="animable"></path></g><path d="M355.1,192.17s-6.93,7.06-7.78,37l-31.05-2.51s-4.94-21.39-1.11-36.51A78.8,78.8,0,0,1,355.1,192.17Z" style="fill: rgb(224, 130, 157); transform-origin: 334.402px 208.827px;" id="elzv40tbr90b" class="animable"></path><g id="el6yms5az0mgx"><path d="M355.1,192.17s-1.63,1.67-3.41,6.79a61.73,61.73,0,0,0-2.05,7.68,130.83,130.83,0,0,0-2.32,22.56l-31.05-2.51s-4.94-21.39-1.11-36.51A78.8,78.8,0,0,1,355.1,192.17Z" style="fill: rgb(255, 255, 255); opacity: 0.4; transform-origin: 334.402px 208.851px;" class="animable"></path></g><polygon points="289.06 399.34 295.26 400.44 297.81 391.97 300.13 384.2 292.98 381.7 290.9 391.04 289.06 399.34" style="fill: rgb(238, 193, 187); transform-origin: 294.595px 391.07px;" id="elpwfogkf3py" class="animable"></polygon><g id="elc7o51xdqbc"><polygon points="290.86 391.23 297.78 392.14 300.12 384.29 292.97 381.74 290.86 391.23" style="opacity: 0.2; isolation: isolate; transform-origin: 295.49px 386.94px;" class="animable"></polygon></g><polygon points="330.51 402.2 336.81 402.2 337.85 393.32 338.79 385.21 331.3 383.97 330.88 393.62 330.51 402.2" style="fill: rgb(238, 193, 187); transform-origin: 334.65px 393.085px;" id="elvw8x8hv0y9f" class="animable"></polygon><g id="elvfq65t8shk"><polygon points="330.88 393.7 337.85 393.39 338.79 385.25 331.3 383.99 330.88 393.7" style="opacity: 0.2; isolation: isolate; transform-origin: 334.835px 388.845px;" class="animable"></polygon></g><path d="M290.28,386.3l10.21,1.8c10.3-25.66,17.62-47.08,22.8-64.86,2.78-9.59,5.11-18.12,6.78-25.69l-.31,27.94v62.93h10.06c25.21-120.1,7.1-155.26,7.1-155.26l-30.67-1.95c-1.14,4.5-1.27,16.59-1.78,21.67l-1.36,10-11.79,60.9Z" style="fill: rgb(38, 50, 56); transform-origin: 321.748px 309.815px;" id="eljw6gzxckk1o" class="animable"></path><g id="ele53l0a2jmk"><path d="M323.29,323.24c2.78-9.59,5-18.12,6.63-25.69A237,237,0,0,0,328,270.76S323.55,305.32,323.29,323.24Z" style="opacity: 0.2; isolation: isolate; transform-origin: 326.605px 297px;" class="animable"></path></g><polygon points="347.32 229.2 316.27 226.69 316.27 231.96 347.77 234.74 347.32 229.2" id="eljtcu0g24l2" class="animable" style="transform-origin: 332.02px 230.715px;"></polygon><path d="M324.85,229v2.44a1.89,1.89,0,0,0,1.74,1.9l3.84.34h.17a1.91,1.91,0,0,0,1.91-1.91v-2.45a1.89,1.89,0,0,0-1.74-1.9l-3.85-.34a1.92,1.92,0,0,0-2.07,1.91Zm1,2.44v-.8h.05l1.08.08a.65.65,0,0,0,.1-1.3l-1.08-.08-.15,0V229a.94.94,0,0,1,.3-.69,1,1,0,0,1,.63-.24h.08l3.84.34a.92.92,0,0,1,.85.92v2.45a.92.92,0,0,1-.3.68.9.9,0,0,1-.71.24l-3.84-.34A.92.92,0,0,1,325.83,231.46Z" style="fill: rgb(255, 255, 255); transform-origin: 328.68px 230.377px;" id="elcstrxzu08vr" class="animable"></path><path d="M339.06,189.07a2.32,2.32,0,0,1,1.31,1.11A16.91,16.91,0,0,1,330,193.47c-1.06,0-3.25-3-1.61-3.9a7,7,0,0,1,.94-.41c.7-.56,1.56-1.92,1.5-5.2a26.57,26.57,0,0,0-.38-3.84l9.12-1.76S336.44,184.52,339.06,189.07Z" style="fill: rgb(238, 193, 187); transform-origin: 334.085px 185.917px;" id="elril9zo6rai" class="animable"></path><g id="elghk50appqk6"><path d="M330.4,180.12a26.57,26.57,0,0,1,.38,3.84c6.16,0,8.74-5.6,8.74-5.6Z" style="opacity: 0.2; isolation: isolate; transform-origin: 334.96px 181.16px;" class="animable"></path></g><path d="M298.66,395.94l-12-2.24v8.5s-6.12,10.15-8.76,10.84a2.89,2.89,0,0,0-2.09,3.41h13.21l3.2-3.83.7,3.83h2.53s2.68-7.72,0-13.14Z" style="fill: rgb(38, 50, 56); transform-origin: 287.202px 405.075px;" id="ellqowx18dswq" class="animable"></path><path d="M340.83,394.88l-12,.93,1.06,6.39s-6.12,10.15-8.76,10.84a2.89,2.89,0,0,0-2.09,3.41h13.21l3.2-3.83.69,3.83h2.54s2.68-7.72,0-13.14Z" style="fill: rgb(38, 50, 56); transform-origin: 329.902px 405.665px;" id="eln0mivv2yodn" class="animable"></path><path d="M334.62,154.38c-7.92-.72-10.85,3.29-12.17,11.39-1.64,10.13,0,17.57,10.05,16.29C346.21,180.32,347.76,155.57,334.62,154.38Z" style="fill: rgb(238, 193, 187); transform-origin: 332.787px 168.25px;" id="eloyzhkvfdyq" class="animable"></path><path d="M327.61,165.79a16.9,16.9,0,0,1-2.6,3.07,2.19,2.19,0,0,0,2,1.09Z" style="fill: rgb(212, 130, 125); transform-origin: 326.31px 167.871px;" id="elzwm0mrspvw" class="animable"></path><path d="M332.51,165.58c-.07.65.22,1.22.65,1.27s.84-.44.92-1.09-.22-1.21-.65-1.26S332.58,164.93,332.51,165.58Z" style="fill: rgb(38, 50, 56); transform-origin: 333.296px 165.675px;" id="el0ud61morex" class="animable"></path><path d="M333.6,164.55l-1.34-.72S332.82,165.1,333.6,164.55Z" style="fill: rgb(38, 50, 56); transform-origin: 332.93px 164.259px;" id="el959znsi3uud" class="animable"></path><path d="M324.46,164.53c-.07.64.22,1.21.65,1.26s.84-.44.92-1.09-.22-1.21-.65-1.26S324.54,163.88,324.46,164.53Z" style="fill: rgb(38, 50, 56); transform-origin: 325.246px 164.615px;" id="el7xokaccnq0v" class="animable"></path><path d="M325.56,163.49l-1.35-.71S324.77,164.05,325.56,163.49Z" style="fill: rgb(38, 50, 56); transform-origin: 324.885px 163.206px;" id="el10qa6rleq2b" class="animable"></path><path d="M336.41,162a.35.35,0,0,1-.29-.15,3.8,3.8,0,0,0-3-1.35.34.34,0,0,1-.36-.33.35.35,0,0,1,.33-.36,4.43,4.43,0,0,1,3.62,1.66.34.34,0,0,1-.09.48A.32.32,0,0,1,336.41,162Z" style="fill: rgb(38, 50, 56); transform-origin: 334.766px 160.905px;" id="el0fog5yqeyo25" class="animable"></path><path d="M324.15,160a.35.35,0,0,1-.3-.18.35.35,0,0,1,.14-.47,4,4,0,0,1,3.52-.37.35.35,0,0,1,.16.46.34.34,0,0,1-.45.16,3.35,3.35,0,0,0-2.91.36A.42.42,0,0,1,324.15,160Z" style="fill: rgb(38, 50, 56); transform-origin: 325.756px 159.366px;" id="eli616q0q3u2" class="animable"></path><path d="M342.06,168.5s-3.11-6.84-2.1-11.81c0,0-15.1-7.82-17.32,8,0,0-.25-14.27,13.38-13.35s11.78,20.81,4.21,26.1C340.23,177.46,344,172.77,342.06,168.5Z" style="fill: rgb(38, 50, 56); transform-origin: 334.37px 164.369px;" id="elgb4o0gtqmrs" class="animable"></path><path d="M340.61,170.05a3.48,3.48,0,0,1,4-2.83c2.43.49,3.14,5.63-3.07,6.29C340.68,173.6,340.26,172.7,340.61,170.05Z" style="fill: rgb(238, 193, 187); transform-origin: 343.432px 170.344px;" id="elma1r9g2rhcg" class="animable"></path><path d="M327.45,172.21a19.89,19.89,0,0,1,1.62,2.36l.47-.18c2.13-.85,2.83-1.94,3-2.9a2.76,2.76,0,0,0-.16-1.38,3,3,0,0,0-.35-.72,10.8,10.8,0,0,1-3.83,2.52C327.74,172.11,327.45,172.21,327.45,172.21Z" style="fill: rgb(38, 50, 56); transform-origin: 330.008px 171.98px;" id="elbug1aj0s65" class="animable"></path><path d="M328.17,171.91l.5.68c2-.8,3.3-1.63,3.68-2.48a3,3,0,0,0-.35-.72A10.8,10.8,0,0,1,328.17,171.91Z" style="fill: rgb(255, 255, 255); transform-origin: 330.26px 170.99px;" id="elqox5aqzpis" class="animable"></path><path d="M329.54,174.39c2.13-.85,2.83-1.94,3-2.9a7.54,7.54,0,0,0-2.17,1.41A2.72,2.72,0,0,0,329.54,174.39Z" style="fill: rgb(222, 87, 83); transform-origin: 331.04px 172.94px;" id="elkvru6pn2wbg" class="animable"></path><g id="el2ky9benab9h"><path d="M351.69,199a61.73,61.73,0,0,0-2.05,7.68,23.22,23.22,0,0,1,.16-8.69Z" style="opacity: 0.2; isolation: isolate; transform-origin: 350.498px 202.335px;" class="animable"></path></g><path d="M355.1,192.17c6.46,2.1,20,23.82,19,26.63S352,229.2,352,229.2l6.45,9.49s-4.88,3.85-7.25,2.86-4.82-9.51-5.06-12.45,18.28-10.95,19-12.3-8.82-11.33-14.63-15.73a7.24,7.24,0,0,1-.34-5A5.45,5.45,0,0,1,355.1,192.17Z" style="fill: rgb(238, 193, 187); transform-origin: 360.145px 216.941px;" id="el17wjvy4gywj" class="animable"></path></g><g id="freepik--character-1--inject-512" class="animable" style="transform-origin: 193.516px 283.738px;"><path d="M221.65,189.05a18.2,18.2,0,0,0,1.61,3.15c.66.81,7.32,3.82,7.32,3.82s3-5.4,3.08-5.74-5.77-6.11-9.67-4.69Z" style="fill: rgb(235, 179, 118); transform-origin: 227.655px 190.693px;" id="elbvszzvv2aqi" class="animable"></path><path d="M188.43,193.47c4.19-.57,17.54-2.75,19.52-3.29s16.71-4.85,16.71-4.85l.75,3.19s-16.28,6.9-19.44,8-23.4,5.56-23.4,5.56Z" style="fill: rgb(235, 179, 118); transform-origin: 203.99px 193.705px;" id="elgwjmk0jmwno" class="animable"></path><path d="M255.81,224.33l10.59,1.58s1.84-2.25,3.07-2.56a47.57,47.57,0,0,1,6.48-.06s1.41,8,.45,8.7-7.84.81-8.92.46-1.7-2.18-1.7-2.18L256,228.72Z" style="fill: rgb(159, 91, 83); transform-origin: 266.272px 227.925px;" id="elelx4m0cuik" class="animable"></path><path d="M224.86,189.49c4.58.28,12.1,30.28,12.1,30.28l27.14,5.08v6.36s-28.58-3-30.5-3.12S222.37,205,222.37,205l1.53-12.58Z" style="fill: rgb(38, 50, 56); transform-origin: 243.235px 210.35px;" id="el1ybt0ivnl4x" class="animable"></path><g id="el1sy0etv70ku"><path d="M264.1,224.85v6.36s-28.59-3-30.5-3.12c-.16,0-.38-.18-.63-.48-1.87-2.22-6-11.6-8.5-17.56-1.24-3-2.1-5.06-2.1-5.06l1.53-12.58,1-2.92c4.58.28,12.1,30.28,12.1,30.28Z" style="fill: rgb(255, 255, 255); opacity: 0.4; isolation: isolate; transform-origin: 243.235px 210.35px;" class="animable"></path></g><g id="elphi9abvfckq"><path d="M233,227.61c-1.87-2.22-6-11.6-8.5-17.56l3.85-7.3S234.34,217.1,233,227.61Z" style="opacity: 0.2; isolation: isolate; transform-origin: 228.848px 215.18px;" class="animable"></path></g><path d="M195.12,162.09c.07-.55.06-1.14.12-1.79a4.22,4.22,0,0,1,2.4-3.66,15.62,15.62,0,0,0,2-.56c1-.52,1.41-1.68,2.15-2.52a4.15,4.15,0,0,1,3.11-1.38c1.45,0,2.88.79,4.28.42a6.56,6.56,0,0,0,1.43-.65,6.8,6.8,0,0,1,2.79-.91,3.32,3.32,0,0,1,2.69,1c.5.54.77,1.31,1.39,1.7,1.18.76,2.88-.23,4.1.46,1.05.59,1.22,2.14,2.23,2.79.45.29,1,.36,1.47.64a2.78,2.78,0,0,1,1.13,2c.12.79.08,1.61.24,2.39.37,1.81,1.47,2.31,2.79,3.28,1.07.79,2.76,2.28,1.75,3.73-1.5,2.17-3.6,3.84-1.64,5.46s5.17,2.69,3.74,4.64-3.71,2.74-2.18,4.61,1.77,3.95.07,4.92c0,0,1.1-1.43-1-2.76S228,183.2,228,183.2a2.92,2.92,0,0,0-.89,2.84,3.28,3.28,0,0,1-.46,2.83s.35.12-1.2-1.58a3.16,3.16,0,0,1-.89-3.25s-1.42,3.67-1.88,5-8.2,3.06-9.77,2.3-7.16-.1-7.12-3a2.3,2.3,0,0,0,0,2.88,2.5,2.5,0,0,1-1.92-1.86c-.44-1.64-2.55-3.5-2.55-3.5s2.07,2.56.79,4.06a2.3,2.3,0,0,0-.35,2.81s-2.09-1.52-2.14-2.7,1.51-2.5-1.55-4-2-2.58-2-2.58a3.73,3.73,0,0,0,0,4c1.33,1.85-.89,4.06-.89,4.06s1.49-2.32-.15-3.36-2.75-3.16-1.65-4.54a2.54,2.54,0,0,0-1.47,2.73c.09,2.22-1.16,2.74-1.16,2.74s.81-2-.12-2.68-1.13-3.27-.19-4.42,1.76-3.58.36-5.16-1.77-2.87-.19-4.22,1.77-4.26,1.26-6c-.35-1.19,1.51-1.91,2.23-2.48A2.76,2.76,0,0,0,195.12,162.09Z" style="fill: rgb(38, 50, 56); transform-origin: 211.612px 171.878px;" id="el8vuj1ay8l0p" class="animable"></path><path d="M252,408.49l5.19-1.41c-1.9-26.15-7-57.7-11.39-81.36-.69-3.7-1.35-7.21-2-10.48-.31-1.55-.59-3-.88-4.48-1.38-7.09-2.55-12.69-3.27-16.15-.54-2.53-.84-3.91-.84-3.91l-18.64,5.4,1.55,4.7,5.13,15.51.58,1.77,3.39,10.24,5.76,17.43C237.37,372.42,252,408.49,252,408.49Z" style="fill: rgb(159, 91, 83); transform-origin: 238.68px 349.595px;" id="elc9lxhh4za8" class="animable"></path><path d="M206.76,407.23l5.35-.52c2.8-28.35,2.91-63.66,2.53-88.19-.06-3.8-.13-7.35-.21-10.57,0-.16,0-.32,0-.47-.16-6.39-.32-11.47-.44-14.68-.11-2.52-.16-3.9-.16-3.9l-19.29,2.16,1.2,8,1.75,11.8.35,2.31,1.2,8,3.23,21.55C198.51,369.19,206.76,407.23,206.76,407.23Z" style="fill: rgb(159, 91, 83); transform-origin: 204.669px 348.065px;" id="eli9hig69cqw8" class="animable"></path><g id="elqvzmmcdvkb9"><path d="M197.48,310.88l17-2.93c0-.16,0-.32,0-.47-.16-6.39-.32-11.47-.44-14.68l-18.25,6.28Z" style="opacity: 0.2; isolation: isolate; transform-origin: 205.135px 301.84px;" class="animable"></path></g><g id="el98hziukmu1h"><path d="M241.51,303.68l-17.84,3-1.95-5.9,17.91-6.19C240.1,296.82,240.74,299.89,241.51,303.68Z" style="opacity: 0.2; isolation: isolate; transform-origin: 231.615px 300.635px;" class="animable"></path></g><path d="M195.29,240.13s-11.57,27-.76,66.22l21.07-2.41V283.73l4.56,19.47L241.29,299c-6.5-31.8-12.35-46.23-12.35-46.23l-1.57-16Z" style="fill: rgb(224, 130, 157); transform-origin: 215.602px 271.56px;" id="elq39kbtkscwn" class="animable"></path><g id="elhdt2lla816r"><path d="M195.29,240.13s-11.57,27-.76,66.22l21.07-2.41V283.73l4.56,19.47L241.29,299c-6.5-31.8-12.35-46.23-12.35-46.23l-1.57-16Z" style="fill: rgb(255, 255, 255); opacity: 0.7; isolation: isolate; transform-origin: 215.602px 271.56px;" class="animable"></path></g><polygon points="205.08 245.99 221.72 244.52 221.72 239.13 205.08 240.56 205.08 245.99" style="fill: rgb(38, 50, 56); transform-origin: 213.4px 242.56px;" id="el6ubpnewtgud" class="animable"></polygon><polygon points="203.62 240.69 195.27 241.41 194.53 246.93 203.62 246.12 203.62 240.69" style="fill: rgb(38, 50, 56); transform-origin: 199.075px 243.81px;" id="elqamuwu2vec" class="animable"></polygon><polygon points="222.99 239.02 222.99 244.41 226.72 244.08 226.72 238.69 222.99 239.02" style="fill: rgb(38, 50, 56); transform-origin: 224.855px 241.55px;" id="elhucx58hpvt" class="animable"></polygon><path d="M217.32,239.63a2,2,0,0,0-1.49-.5l-3.93.34a1.94,1.94,0,0,0-1.78,1.94v2.51a1.94,1.94,0,0,0,1.95,2h.17l3.93-.34a1.94,1.94,0,0,0,1.78-2v-2.5A2,2,0,0,0,217.32,239.63Zm-1.24,4.88-3.92.35a.93.93,0,0,1-.73-.24,1,1,0,0,1-.3-.7v-2.51a.94.94,0,0,1,.86-.94l3.93-.34H216a1,1,0,0,1,.95.94v.38l-.16,0-1.1.09a.67.67,0,0,0,.1,1.33l1.1-.08.06,0v.82A.94.94,0,0,1,216.08,244.51Z" style="fill: rgb(255, 255, 255); transform-origin: 214.035px 242.522px;" id="els68tyl7fbtm" class="animable"></path><path d="M204.22,406.14c0-.68,8.28-.15,8.28-.15s5.09,5.17,10,6.34,2.18,4.12-3.35,4.12H205.52C201.6,416.45,204.05,413.11,204.22,406.14Z" style="fill: rgb(38, 50, 56); transform-origin: 214.183px 411.122px;" id="elgwe29h6zsg6" class="animable"></path><path d="M216.85,408.11a10.32,10.32,0,0,1-3.43-1.05.13.13,0,0,1-.07-.06h0l0,0a.25.25,0,0,1,0-.17c0-.08.72-2,1.85-2.48a1.25,1.25,0,0,1,1.07,0c.37.18.56.41.54.7s-.62.87-1.29,1.22a3.5,3.5,0,0,1,1.86.21.88.88,0,0,1,.44.56.8.8,0,0,1-.2.88A1.15,1.15,0,0,1,216.85,408.11Zm-2.67-1.19c1.22.52,2.73,1,3.12.65,0,0,.14-.11.06-.44a.44.44,0,0,0-.24-.28A5.29,5.29,0,0,0,214.18,406.92Zm1.48-2.28a1.09,1.09,0,0,0-.34.07,3.73,3.73,0,0,0-1.42,1.78c1.23-.46,2.41-1.11,2.43-1.48,0-.11-.18-.22-.29-.27A.8.8,0,0,0,215.66,404.64Z" style="fill: rgb(38, 50, 56); transform-origin: 215.605px 406.173px;" id="eld6koonoyfi" class="animable"></path><path d="M250.5,406.14c0-.68,8.28-.15,8.28-.15s5.09,5.17,10,6.34,2.18,4.12-3.35,4.12H251.8C247.88,416.45,250.33,413.11,250.5,406.14Z" style="fill: rgb(38, 50, 56); transform-origin: 260.463px 411.122px;" id="el00y07kh09ojeq" class="animable"></path><path d="M263.13,408.11a10.32,10.32,0,0,1-3.43-1.05.13.13,0,0,1-.07-.06h0l0,0a.25.25,0,0,1,0-.17c0-.08.72-2,1.85-2.48a1.25,1.25,0,0,1,1.07,0c.37.18.56.41.54.7s-.62.87-1.29,1.22a3.5,3.5,0,0,1,1.86.21.88.88,0,0,1,.44.56.8.8,0,0,1-.2.88A1.15,1.15,0,0,1,263.13,408.11Zm-2.67-1.19c1.22.52,2.73,1,3.12.65,0,0,.14-.11.06-.44a.44.44,0,0,0-.24-.28A5.29,5.29,0,0,0,260.46,406.92Zm1.48-2.28a1.09,1.09,0,0,0-.34.07,3.73,3.73,0,0,0-1.42,1.78c1.23-.46,2.41-1.11,2.43-1.48,0-.11-.18-.22-.29-.27A.8.8,0,0,0,261.94,404.64Z" style="fill: rgb(38, 50, 56); transform-origin: 261.885px 406.173px;" id="elvikslbrazot" class="animable"></path><g id="ele2750zkay4l"><path d="M215.6,283.73c3.6-7.44,6.12-13.56,6.12-13.56s.79,18.84-1.56,33Z" style="opacity: 0.2; isolation: isolate; transform-origin: 218.724px 286.67px;" class="animable"></path></g><path d="M209.86,198.34c-6.92-2.64-8.33-6.2-8.33-6.2,5.56-3.18,3.58-11.49,3.58-11.49l8.21,3.67a26.68,26.68,0,0,0-1.21,3.54c-1.32,5.2,1,5.82,1,5.82C214,196.86,209.86,198.34,209.86,198.34Z" style="fill: rgb(159, 91, 83); transform-origin: 207.425px 189.495px;" id="elxck7kxa7az" class="animable"></path><g id="el6i28nst5ze"><path d="M213.32,184.32a26.68,26.68,0,0,0-1.21,3.54c-5.8-1.4-7-7.21-7-7.21Z" style="opacity: 0.2; isolation: isolate; transform-origin: 209.215px 184.255px;" class="animable"></path></g><path d="M203.18,157.29s-4.45.39-6,7.56,3.31,19.33,9.37,18S203.18,157.29,203.18,157.29Z" style="fill: rgb(38, 50, 56); transform-origin: 202.735px 170.12px;" id="elh9lmk1djt7b" class="animable"></path><path d="M221.17,179.79q-.12.39-.24.75c-1.11,3.09-3.35,5-7.22,4.93a12.38,12.38,0,0,1-1.68-.1l-1.12-.18c-13.14-2.5-13.16-26.5-.39-26.87,7.69-.23,10.28,3.83,11.07,11.73A27.15,27.15,0,0,1,221.17,179.79Z" style="fill: rgb(159, 91, 83); transform-origin: 211.422px 171.891px;" id="elbooycfk6mlg" class="animable"></path><path d="M216.61,169.76a16.15,16.15,0,0,0,2.33,3.13,2.11,2.11,0,0,1-2,.92Z" style="fill: rgb(137, 43, 41); transform-origin: 217.775px 171.792px;" id="elb32o7vcocv4" class="animable"></path><path d="M211.89,169.27c0,.63-.29,1.16-.71,1.18s-.79-.47-.82-1.1.28-1.16.7-1.18S211.85,168.64,211.89,169.27Z" style="fill: rgb(38, 50, 56); transform-origin: 211.124px 169.31px;" id="elk9s8uvnqokh" class="animable"></path><path d="M210.89,168.21l1.34-.61S211.61,168.79,210.89,168.21Z" style="fill: rgb(38, 50, 56); transform-origin: 211.56px 167.985px;" id="elgyuzfxb13gf" class="animable"></path><path d="M219.72,168.73c0,.63-.28,1.16-.7,1.18s-.79-.47-.82-1.1.28-1.16.7-1.18S219.69,168.1,219.72,168.73Z" style="fill: rgb(38, 50, 56); transform-origin: 218.959px 168.77px;" id="el9r3qr5s0qqe" class="animable"></path><path d="M218.73,167.67l1.34-.61S219.45,168.25,218.73,167.67Z" style="fill: rgb(38, 50, 56); transform-origin: 219.4px 167.445px;" id="eli9ttpomxup8" class="animable"></path><path d="M208.35,165.58a.38.38,0,0,1-.22-.07.36.36,0,0,1-.06-.51,4.33,4.33,0,0,1,3.62-1.4.38.38,0,0,1,.33.4.35.35,0,0,1-.4.32,3.7,3.7,0,0,0-3,1.12A.37.37,0,0,1,208.35,165.58Z" style="fill: rgb(38, 50, 56); transform-origin: 210.006px 164.58px;" id="elbuj46oo5dti" class="animable"></path><path d="M220.32,164.38a.35.35,0,0,1-.2,0,3.25,3.25,0,0,0-2.75-.52.35.35,0,0,1-.47-.2.36.36,0,0,1,.2-.47,4,4,0,0,1,3.41.57.36.36,0,0,1,.11.5A.35.35,0,0,1,220.32,164.38Z" style="fill: rgb(38, 50, 56); transform-origin: 218.776px 163.714px;" id="el39mpwa4nlku" class="animable"></path><path d="M202.49,171.52s3.41-6.42,2.73-11.28c0,0,15.05-6.67,16.25,8.78,0,0,1.09-13.78-12.13-13.7s-12.61,19.41-5.62,25C203.72,180.29,200.38,175.53,202.49,171.52Z" style="fill: rgb(38, 50, 56); transform-origin: 210.162px 167.82px;" id="elo94r9ocrx8" class="animable"></path><path d="M203.79,173.11a3.37,3.37,0,0,0-3.72-3c-2.37.33-3.37,5.25,2.59,6.26C203.52,176.53,204,175.69,203.79,173.11Z" style="fill: rgb(159, 91, 83); transform-origin: 201.026px 173.239px;" id="elmnqlt56q96l" class="animable"></path><path d="M216.91,176.64a20.29,20.29,0,0,0-1.8,2.23l-.46-.22c-2.05-1-2.67-2.15-2.73-3.12a3.17,3.17,0,0,1,.68-2.05,10.8,10.8,0,0,0,3.61,2.81C216.63,176.52,216.91,176.64,216.91,176.64Z" style="fill: rgb(38, 50, 56); transform-origin: 214.414px 176.175px;" id="elqzqzdfz77zr" class="animable"></path><path d="M216.21,176.29l-.54.64c-1.93-1-3.17-1.88-3.48-2.77a2.76,2.76,0,0,1,.41-.68A10.8,10.8,0,0,0,216.21,176.29Z" style="fill: rgb(255, 255, 255); transform-origin: 214.2px 175.205px;" id="elfnw4593env" class="animable"></path><path d="M214.65,178.65c-2.05-1-2.67-2.15-2.73-3.12A7.47,7.47,0,0,1,214,177.1,2.79,2.79,0,0,1,214.65,178.65Z" style="fill: rgb(222, 87, 83); transform-origin: 213.285px 177.09px;" id="elj7b1kkr37i" class="animable"></path><path d="M229.88,230.32l-39.08,5.91L192,203.58l34.2-.83S230.36,216.56,229.88,230.32Z" style="fill: rgb(38, 50, 56); transform-origin: 210.359px 219.49px;" id="elv2iv0vltaj" class="animable"></path><path d="M195.29,240.13l31.43-2.79s3.06-33.46-1.86-47.85l-2.27.1c-5.16.27-18.25,1.25-29.57,4.48-.76.21-1.49.44-2.22.66C190.8,194.73,196.45,216.55,195.29,240.13Z" style="fill: rgb(224, 130, 157); transform-origin: 209.23px 214.81px;" id="el2qt4vznqqej" class="animable"></path><g id="el01loaxivewjw"><path d="M195.29,240.13l31.43-2.79s3.06-33.46-1.86-47.85l-2.27.1c-5.16.27-18.25,1.25-29.57,4.48-.76.21-1.49.44-2.22.66C190.8,194.73,196.45,216.55,195.29,240.13Z" style="fill: rgb(255, 255, 255); opacity: 0.4; transform-origin: 209.23px 214.81px;" class="animable"></path></g><path d="M193,194.07c.3.29,11.2,10.91,20.41,8.26,8.79-2.55,9.15-11.66,9.16-12.74C217.43,189.86,204.34,190.84,193,194.07Z" style="fill: rgb(159, 91, 83); transform-origin: 207.785px 196.172px;" id="elgs3timrzlyf" class="animable"></path><path d="M188.27,240.13l1.1,1,.54.46c9.4-18.83,4.62-48.2,4.62-48.2l-3.73,1.38c.24,4.61.25,9.35.13,13.94A287.14,287.14,0,0,1,188.27,240.13Z" style="fill: rgb(38, 50, 56); transform-origin: 192.008px 217.49px;" id="elf7cppavut1j" class="animable"></path><path d="M220.82,189.49s10,21.85,7.63,44.47l1.9-1.53s-.23-33.15-5.49-42.94Z" style="fill: rgb(38, 50, 56); transform-origin: 225.585px 211.725px;" id="elylp3nmtkix" class="animable"></path><g id="elppft6bp97ro"><path d="M189.91,241.55l-.54-.46-1.1-1s1.49-9.86,2.27-22.56c.16-2.56.28-5.24.37-8,0-.31,0-.62,0-.93.12-4.59.11-9.33-.13-13.94l3.73-1.38S199.3,222.72,189.91,241.55Z" style="fill: rgb(255, 255, 255); opacity: 0.4; isolation: isolate; transform-origin: 192.001px 217.415px;" class="animable"></path></g><g id="elvq74b4bzm8n"><path d="M220.82,189.49s10,21.85,7.63,44.47l1.9-1.53s-.23-33.15-5.49-42.94Z" style="fill: rgb(255, 255, 255); opacity: 0.4; isolation: isolate; transform-origin: 225.585px 211.725px;" class="animable"></path></g><path d="M211.54,173a3.54,3.54,0,1,1,3.53-3.53A3.54,3.54,0,0,1,211.54,173Zm0-6.57a3,3,0,1,0,3,3A3,3,0,0,0,211.54,166.39Z" style="fill: rgb(38, 50, 56); transform-origin: 211.53px 169.46px;" id="elzr3litoewd" class="animable"></path><path d="M220.15,171.65a3.54,3.54,0,1,1,3.54-3.54A3.54,3.54,0,0,1,220.15,171.65Zm0-6.58a3,3,0,1,0,3,3A3,3,0,0,0,220.15,165.07Z" style="fill: rgb(38, 50, 56); transform-origin: 220.15px 168.11px;" id="elkyho633sps" class="animable"></path><path d="M214.75,169a.27.27,0,0,1-.17-.06.26.26,0,0,1,0-.36,2.42,2.42,0,0,1,1.58-.79,1.23,1.23,0,0,1,.94.52.25.25,0,0,1-.39.31.76.76,0,0,0-.57-.33,2,2,0,0,0-1.19.63A.22.22,0,0,1,214.75,169Z" style="fill: rgb(38, 50, 56); transform-origin: 215.825px 168.396px;" id="elaii0ow78nzo" class="animable"></path><path d="M201,170.18a.25.25,0,0,1-.25-.24.25.25,0,0,1,.23-.26l7.22-.5a.25.25,0,0,1,.27.23.25.25,0,0,1-.23.27l-7.22.5Z" style="fill: rgb(38, 50, 56); transform-origin: 204.61px 169.68px;" id="elo2l6eospkvp" class="animable"></path><g id="el2awwzj3tucd"><path d="M190.54,217.57c.16-2.56.28-5.24.37-8a3.19,3.19,0,0,1,1.1.08A20.21,20.21,0,0,1,190.54,217.57Z" style="opacity: 0.2; isolation: isolate; transform-origin: 191.276px 213.562px;" class="animable"></path></g><path d="M162.34,226.81l-10.49,2.12s-1.95-2.15-3.19-2.39a47.2,47.2,0,0,0-6.48.27s-1,8.05,0,8.72,7.88.39,8.93,0,1.58-2.28,1.58-2.28l9.65-2.05Z" style="fill: rgb(159, 91, 83); transform-origin: 152.038px 231.228px;" id="elucscn5ulwjc" class="animable"></path><path d="M190.8,194.73c-3.16,1.17-11.08,24.84-12,25.76S155.48,227,155.48,227l1.44,5.86s23.16-3.9,25.18-5,9.91-18.2,9.91-18.2Z" style="fill: rgb(38, 50, 56); transform-origin: 173.745px 213.795px;" id="ellztjaqffke" class="animable"></path><g id="elneqh8i3zpl"><path d="M190.8,194.73c-3.16,1.17-11.08,24.84-12,25.76S155.48,227,155.48,227l1.44,5.86s23.16-3.9,25.18-5,9.91-18.2,9.91-18.2Z" style="fill: rgb(255, 255, 255); opacity: 0.4; isolation: isolate; transform-origin: 173.745px 213.795px;" class="animable"></path></g><path d="M224.1,206.37l-.66.14-.19-.88a2.3,2.3,0,1,0-2.93-3.31,2.31,2.31,0,0,0,1.94,3.54h0l.2.87-.66.15.22,1,.66-.15.13.6,1-.22-.14-.6.66-.15Zm-2.53-1.72a1.27,1.27,0,0,1-.58-.81,1.28,1.28,0,0,1,.17-1,1.3,1.3,0,0,1,.82-.57.92.92,0,0,1,.29,0,1.24,1.24,0,0,1,.69.21,1.27,1.27,0,0,1,.58.81,1.29,1.29,0,0,1-1,1.56A1.25,1.25,0,0,1,221.57,204.65Z" style="fill: rgb(255, 255, 255); transform-origin: 222.263px 204.792px;" id="elm23ivvx8qve" class="animable"></path><path d="M171.15,164.69a14.67,14.67,0,0,0-9.37,12.59c-.78,9.72-8.56,17.12-5.66,24.36s28.51,1.9,34-7.95,7-19.35,2.5-24.95S174,158.6,171.15,164.69Z" style="fill: rgb(38, 50, 56); transform-origin: 175.37px 183.389px;" id="elby6mp5f9su" class="animable"></path><path d="M188.43,193.47s-12.21,21.64-15,46.29l-30.3,1.64s-.39-17.65,3.55-32.42c.11-.41.22-.82.34-1.23a49.69,49.69,0,0,1,2.9-7.79,3.92,3.92,0,0,1,.56-.87,4.63,4.63,0,0,1,3.06-1.67l28.74-3.25Z" style="fill: rgb(224, 130, 157); transform-origin: 165.775px 217.435px;" id="elkfu1uz6ra1f" class="animable"></path><polygon points="122.46 398.62 118.71 393.71 125.07 387.57 130.86 382 136.29 387.08 128.98 393.19 122.46 398.62" style="fill: rgb(235, 179, 118); transform-origin: 127.5px 390.31px;" id="el61xp5e5k84s" class="animable"></polygon><path d="M118.49,392.21c.55-.4,5.21,6.58,5.21,6.58s-1,7.27,1.07,12-2,4.29-5.38-.15l-8.4-11C108.58,396.45,112.78,396.37,118.49,392.21Z" style="fill: rgb(38, 50, 56); transform-origin: 117.814px 403.175px;" id="ela895oe8s4qh" class="animable"></path><path d="M125.28,404.05c-1.06-.24-1.74-3.26-1.87-3.86a.14.14,0,0,1,0-.09h0a.19.19,0,0,1,0-.07h0l0,0h0l.08,0c.1,0,2.06-.65,3.13,0a1.27,1.27,0,0,1,.63.88.78.78,0,0,1-.22.87c-.37.24-1.08,0-1.78-.28a3.41,3.41,0,0,1,1,1.61,1,1,0,0,1-.86,1.1Zm.1-.43c.05,0,.18.05.39-.22a.46.46,0,0,0,.08-.37c-.09-.69-1.13-1.7-1.86-2.32C124.32,402,124.89,403.51,125.38,403.62Zm-1.21-3.39c1.12.7,2.36,1.26,2.68,1,.1-.06.07-.28,0-.41a.87.87,0,0,0-.42-.58,2.06,2.06,0,0,0-1-.22A5.85,5.85,0,0,0,124.17,400.23Z" style="fill: rgb(224, 130, 157); transform-origin: 125.352px 401.976px;" id="el6x41zzcyuu" class="animable"></path><g id="elgcltsk6qwj"><polygon points="128.98 393.19 125.07 387.57 130.86 382 136.29 387.08 128.98 393.19" style="opacity: 0.2; isolation: isolate; transform-origin: 130.68px 387.595px;" class="animable"></polygon></g><polygon points="160.05 406.4 153.87 406.4 152.86 397.79 151.94 389.89 159.28 388.7 159.69 398.07 160.05 406.4" style="fill: rgb(235, 179, 118); transform-origin: 155.995px 397.55px;" id="el4q03ryvklnn" class="animable"></polygon><path d="M152.55,406c0-.68,8.39-.14,8.39-.14s5.15,5.24,10.15,6.41,2.21,4.18-3.38,4.18H153.87C149.9,416.45,152.38,413.07,152.55,406Z" style="fill: rgb(38, 50, 56); transform-origin: 162.662px 411.053px;" id="elnfec7ja7re" class="animable"></path><path d="M161.87,406.94a.18.18,0,0,1-.07-.05h0a.43.43,0,0,1,0-.07h0a.15.15,0,0,1,0-.07h0a.14.14,0,0,1,0-.09c0-.1.74-2,1.87-2.51a1.31,1.31,0,0,1,1.08,0c.38.19.57.42.55.71,0,.44-.62.88-1.3,1.24a3.49,3.49,0,0,1,1.88.21.89.89,0,0,1,.44.57.8.8,0,0,1-.2.89,1.16,1.16,0,0,1-.74.2A10.49,10.49,0,0,1,161.87,406.94Zm.77-.14c1.23.52,2.77,1,3.16.66,0,0,.14-.12.06-.45a.51.51,0,0,0-.24-.29,2.16,2.16,0,0,0-1-.18A9.75,9.75,0,0,0,162.64,406.8Zm1.16-2.24a3.64,3.64,0,0,0-1.44,1.8c1.24-.47,2.44-1.12,2.46-1.5,0-.11-.18-.22-.3-.28a.92.92,0,0,0-.38-.09A1,1,0,0,0,163.8,404.56Z" style="fill: rgb(224, 130, 157); transform-origin: 164.086px 406.003px;" id="el9n5dl9ub6tr" class="animable"></path><g id="elchn2754857"><polygon points="159.69 398.26 152.86 397.96 151.94 389.98 159.28 388.74 159.69 398.26" style="opacity: 0.2; isolation: isolate; transform-origin: 155.815px 393.5px;" class="animable"></polygon></g><path d="M175.49,257.67s18.26,43.18,21.13,62.12-62,69.75-62,69.75L128,382.48s48.27-49.62,48.27-58.16-18.83-47.53-18.83-47.53S155.6,261.07,175.49,257.67Z" style="fill: rgb(38, 50, 56); transform-origin: 162.356px 323.605px;" id="el9d7y76ekhyq" class="animable"></path><g id="elcjn4mq7fyje"><path d="M162.26,365.91c-6.63,6.11-13,11.62-18,15.78-5.79,4.84-9.64,7.85-9.64,7.85L128,382.48s6.63-6.81,15-15.82c6.56-7.09,14.19-15.55,20.49-23.11,7.29-8.77,12.81-16.35,12.81-19.23,0-4.5-5.24-17.47-10.18-28.72-4.44-10.09-8.65-18.81-8.65-18.81a16.24,16.24,0,0,1,.52-5.33c1.28-4.89,5.28-11.68,17.56-13.79,0,0,18.26,43.18,21.13,62.12C198.19,330.15,179.52,350,162.26,365.91Z" style="fill: rgb(255, 255, 255); opacity: 0.6; isolation: isolate; transform-origin: 162.383px 323.605px;" class="animable"></path></g><g id="el6jhfnlourqb"><path d="M163.43,343.55l-1.17,22.36c-6.63,6.11-13,11.62-18,15.78a52.77,52.77,0,0,1-1.3-15C149.5,359.57,157.13,351.11,163.43,343.55Z" style="opacity: 0.2; isolation: isolate; transform-origin: 153.153px 362.62px;" class="animable"></path></g><g id="elk5odjcbfigq"><path d="M166.06,295.6c-4.44-10.09-8.65-18.81-8.65-18.81a16.24,16.24,0,0,1,.52-5.33,6.49,6.49,0,0,1,2.08-.87S165.41,279.07,166.06,295.6Z" style="opacity: 0.2; isolation: isolate; transform-origin: 161.716px 283.095px;" class="animable"></path></g><path d="M173.73,239.35l-30.49,1.9v0s0,.09,0,.13h-.06s-16.92,34.31,7.81,152.2h10.53V331.39l-1.19-60.8,16.1-4.7S175.3,247.09,173.73,239.35Z" style="fill: rgb(38, 50, 56); transform-origin: 156.981px 316.465px;" id="ell2o6t9ko8bd" class="animable"></path><g id="ellawwqbhrd0s"><path d="M173.73,239.35l-30.49,1.9v0s0,.09,0,.13h-.06s-16.92,34.31,7.81,152.2h10.53V331.39l-1.19-60.8,16.1-4.7S175.3,247.09,173.73,239.35Z" style="fill: rgb(255, 255, 255); opacity: 0.6; isolation: isolate; transform-origin: 156.981px 316.465px;" class="animable"></path></g><polygon points="149.6 392.11 162.54 390.22 161.46 395.39 150.78 396.83 149.6 392.11" style="fill: rgb(224, 130, 157); transform-origin: 156.07px 393.525px;" id="elf9gvgk9xa6" class="animable"></polygon><polygon points="127.97 380.1 136.65 389.54 132.31 392.02 125.61 384.91 127.97 380.1" style="fill: rgb(224, 130, 157); transform-origin: 131.13px 386.06px;" id="el1a0j1trp7c7j" class="animable"></polygon><polygon points="153.35 245.19 170.33 244.5 170.19 239.97 153.22 241.06 153.35 245.19" style="fill: rgb(38, 50, 56); transform-origin: 161.775px 242.58px;" id="elb0o0njemxif" class="animable"></polygon><polygon points="151.72 241.16 143.5 241.69 142.18 245.65 151.85 245.25 151.72 241.16" style="fill: rgb(38, 50, 56); transform-origin: 147.015px 243.405px;" id="elk5y2w5nebm" class="animable"></polygon><polygon points="171.69 239.87 171.83 244.44 174.16 244.34 173.43 239.76 171.69 239.87" style="fill: rgb(38, 50, 56); transform-origin: 172.925px 242.1px;" id="elurx26mag7jl" class="animable"></polygon><g id="elq5yx8raj2o"><rect x="159.83" y="240.24" width="6.62" height="4.76" rx="0.64" style="fill: rgb(255, 255, 255); transform-origin: 163.14px 242.62px; transform: rotate(-3.58deg);" class="animable"></rect></g><path d="M182.27,194.17C172.64,209.7,147,207.75,147,207.75a49.69,49.69,0,0,1,2.9-7.79,4.59,4.59,0,0,1,3.62-2.54Z" style="fill: rgb(235, 179, 118); transform-origin: 164.635px 200.999px;" id="ely435n7wvbj" class="animable"></path><path d="M177.38,196.76a15.85,15.85,0,0,1-5.69,5.28c-7.39-1.51-10.43-4.57-10.43-4.57a10.22,10.22,0,0,0,8-9.07s0-.05,0-.07a5.42,5.42,0,0,0,.05-.62l.61.36,7.13,4.22a4.51,4.51,0,0,0-1.91,2.05,1.25,1.25,0,0,0,.42,1.36A5.73,5.73,0,0,0,177.38,196.76Z" style="fill: rgb(235, 179, 118); transform-origin: 169.32px 194.875px;" id="elqwy6j8vvwq" class="animable"></path><g id="eley18w3fhzn"><path d="M175.11,194.34a1.25,1.25,0,0,0,.42,1.36c-5,1.12-6-6.73-6.31-7.3l0-.06h0c.21-.1.44-.18.66-.26l7.13,4.22A4.51,4.51,0,0,0,175.11,194.34Z" style="opacity: 0.2; isolation: isolate; transform-origin: 173.115px 191.945px;" class="animable"></path></g><path d="M180.13,192.54s-5.24,4.75-.55,10.55a9.33,9.33,0,0,1,1.83-4.47c1.55-1.8,4.18-2,5.44-3.74a12.48,12.48,0,0,1-3.3,3.26s5.57-2.39,6.89-5S184,189.47,180.13,192.54Z" style="fill: rgb(38, 50, 56); transform-origin: 184.109px 196.878px;" id="elepu5fcwpkgk" class="animable"></path><path d="M187,192.31c-.15.24-.29.48-.44.7-1.91,2.84-4.66,4.15-8.56,3.13a14,14,0,0,1-1.68-.53l-1.08-.47c-12.65-5.9-6.5-30.18,6.51-27.27,7.83,1.74,9.41,6.51,8.18,14.7A28.47,28.47,0,0,1,187,192.31Z" style="fill: rgb(235, 179, 118); transform-origin: 179.306px 182.056px;" id="elahai5kh4zi" class="animable"></path><path d="M184.93,181a17.17,17.17,0,0,0,1.55,3.76,2.19,2.19,0,0,1-2.26.43Z" style="fill: rgb(213, 135, 69); transform-origin: 185.35px 183.167px;" id="elhis0p7y1ob" class="animable"></path><path d="M177.75,174.65a.34.34,0,0,1-.28-.13.36.36,0,0,1,.06-.51,4.46,4.46,0,0,1,4-.48.36.36,0,0,1,.21.46.36.36,0,0,1-.46.22,3.82,3.82,0,0,0-3.31.37A.39.39,0,0,1,177.75,174.65Z" style="fill: rgb(38, 50, 56); transform-origin: 179.576px 173.956px;" id="eldyeo8zyf8ud" class="animable"></path><path d="M190.15,176.51a.38.38,0,0,1-.26-.11,3.36,3.36,0,0,0-2.67-1.23.37.37,0,0,1-.4-.32.36.36,0,0,1,.31-.4,4.08,4.08,0,0,1,3.29,1.45.36.36,0,0,1-.27.61Z" style="fill: rgb(38, 50, 56); transform-origin: 188.669px 175.478px;" id="eljrhipqyh7m" class="animable"></path><path d="M170.2,179.15s5.1-5.61,5.66-10.7c0,0,16.93-2.87,14.18,13.05,0,0,4.64-13.65-8.75-17s-17.74,16.39-12.1,23.81C169.19,188.34,167,182.67,170.2,179.15Z" style="fill: rgb(38, 50, 56); transform-origin: 178.799px 176.215px;" id="elssypl5l34jk" class="animable"></path><path d="M171.11,181.09a3.51,3.51,0,0,0-3-4c-2.49-.28-4.76,4.44,1,7C170,184.48,170.63,183.75,171.11,181.09Z" style="fill: rgb(235, 179, 118); transform-origin: 168.324px 180.633px;" id="elqunj6mmbqmf" class="animable"></path><path d="M183.23,186.86a18.52,18.52,0,0,0-2,2l-.43-.27c-1.94-1.21-2.44-2.42-2.4-3.38a2.94,2.94,0,0,1,.41-1.34,2.75,2.75,0,0,1,.48-.64,10.77,10.77,0,0,0,3.3,3.17C183,186.71,183.23,186.86,183.23,186.86Z" style="fill: rgb(38, 50, 56); transform-origin: 180.814px 186.045px;" id="elzdis90opzl" class="animable"></path><path d="M182.57,186.43,182,187c-1.82-1.15-3-2.21-3.17-3.12a2.75,2.75,0,0,1,.48-.64A10.77,10.77,0,0,0,182.57,186.43Z" style="fill: rgb(255, 255, 255); transform-origin: 180.7px 185.12px;" id="el84k3c5zllig" class="animable"></path><path d="M180.78,188.62c-1.94-1.21-2.44-2.42-2.4-3.38a7.45,7.45,0,0,1,1.88,1.77A2.78,2.78,0,0,1,180.78,188.62Z" style="fill: rgb(222, 87, 83); transform-origin: 179.579px 186.93px;" id="el7h3qjssmg4" class="animable"></path><path d="M180.11,178.6c-.11.64-.54,1.11-1,1s-.69-.65-.59-1.29.54-1.11,1-1S180.21,178,180.11,178.6Z" style="fill: rgb(38, 50, 56); transform-origin: 179.315px 178.455px;" id="el5idczyn09f5" class="animable"></path><path d="M179.34,177.31l1.49-.32S179.94,178.05,179.34,177.31Z" style="fill: rgb(38, 50, 56); transform-origin: 180.085px 177.281px;" id="el9wm3c6hh5fn" class="animable"></path><path d="M188.14,179.77c-.1.64-.54,1.11-1,1s-.69-.65-.58-1.3.53-1.11,1-1S188.25,179.12,188.14,179.77Z" style="fill: rgb(38, 50, 56); transform-origin: 187.35px 179.62px;" id="elnf17uc11c2k" class="animable"></path><path d="M187.37,178.47l1.49-.32S188,179.22,187.37,178.47Z" style="fill: rgb(38, 50, 56); transform-origin: 188.115px 178.443px;" id="el55tszebtqf" class="animable"></path><path d="M182.27,209.59a18.19,18.19,0,0,1,1-3.41c.49-.92,6.42-5.18,6.42-5.18s4,4.7,4.15,5-4.46,7.13-8.56,6.5Z" style="fill: rgb(235, 179, 118); transform-origin: 188.057px 206.771px;" id="elneb6222rdxd" class="animable"></path><g id="elpq8rr9jh36b"><path d="M157.7,217.85c-4.77-1.62-8.64-5.73-11-8.87.11-.41.22-.82.34-1.23a49.69,49.69,0,0,1,2.9-7.79,3.92,3.92,0,0,1,.56-.87C154.65,205.25,164.2,220.06,157.7,217.85Z" style="opacity: 0.2; isolation: isolate; transform-origin: 153.302px 208.581px;" class="animable"></path></g><path d="M167.23,224a4.6,4.6,0,0,1-.64,0,4.79,4.79,0,0,1-4.12-5.37,4.73,4.73,0,0,1,1.84-3.17,4.79,4.79,0,1,1,2.92,8.59Zm0-8.08a3.29,3.29,0,0,0-3.25,2.86,3.29,3.29,0,0,0,6.52.86h0a3.3,3.3,0,0,0-.65-2.43,3.32,3.32,0,0,0-2.62-1.29Z" style="fill: rgb(255, 255, 255); transform-origin: 167.223px 219.26px;" id="el3rnbvzs3ddm" class="animable"></path><g id="elcudya0p32sq"><rect x="162.95" y="225.78" width="6.62" height="1.5" style="fill: rgb(255, 255, 255); transform-origin: 166.26px 226.53px; transform: rotate(-82.48deg);" class="animable"></rect></g><g id="el8wama78cagb"><rect x="165.51" y="224.37" width="1.5" height="5.24" style="fill: rgb(255, 255, 255); transform-origin: 166.26px 226.99px; transform: rotate(-82.48deg);" class="animable"></rect></g><path d="M150.22,199.35c-6.46,4.25,8.87,25,14.21,26.92s22-15,22-15l-3.25-2.62s-14.68,10-16.44,9.84-7-11.38-9.87-16.48C154.49,197.7,151.73,198.36,150.22,199.35Z" style="fill: rgb(235, 179, 118); transform-origin: 167.544px 212.52px;" id="el1lmkbl1d50f" class="animable"></path></g><g id="freepik--Texts--inject-512" class="animable animator-hidden" style="transform-origin: 250px 101.14px;"><polygon points="325.2 122.9 358.6 122.9 350.48 104.03 358.6 85.16 325.2 85.16 325.2 122.9" style="fill: rgb(224, 130, 157); transform-origin: 341.9px 104.03px;" id="elfxqtba59ioo" class="animable"></polygon><polygon points="174.8 122.9 141.4 122.9 149.52 104.03 141.4 85.16 174.8 85.16 174.8 122.9" style="fill: rgb(224, 130, 157); transform-origin: 158.1px 104.03px;" id="el8d6n3msxns7" class="animable"></polygon><g id="eld490pxj9hv"><polygon points="325.2 122.9 358.6 122.9 350.48 104.03 358.6 85.16 325.2 85.16 325.2 122.9" style="fill: rgb(255, 255, 255); opacity: 0.2; transform-origin: 341.9px 104.03px;" class="animable"></polygon></g><g id="elb2o0dhbmd08"><polygon points="174.8 122.9 141.4 122.9 149.52 104.03 141.4 85.16 174.8 85.16 174.8 122.9" style="fill: rgb(255, 255, 255); opacity: 0.2; transform-origin: 158.1px 104.03px;" class="animable"></polygon></g><g id="el9f8abq1hpn"><polygon points="341.9 117.12 325.2 122.9 325.2 85.16 341.9 117.12" style="opacity: 0.2; isolation: isolate; transform-origin: 333.55px 104.03px;" class="animable"></polygon></g><g id="el4uy35tkfsn"><polygon points="158.1 117.12 174.8 122.9 174.8 85.16 158.1 117.12" style="opacity: 0.2; isolation: isolate; transform-origin: 166.45px 104.03px;" class="animable"></polygon></g><rect x="158.1" y="79.38" width="183.8" height="37.74" style="fill: rgb(224, 130, 157); transform-origin: 250px 98.25px;" id="eluhb6wy5zfrl" class="animable"></rect><g id="ellz9wpj3lvfm"><rect x="158.1" y="79.38" width="183.8" height="37.74" style="fill: rgb(255, 255, 255); opacity: 0.4; transform-origin: 250px 98.25px;" class="animable"></rect></g><path d="M192,96.68v2.59h-6.57v2.32h5.93v2.57l-5.93,0v2.34h6.75v2.6h-10V96.68Z" style="fill: rgb(255, 255, 255); transform-origin: 187.18px 102.89px;" id="elku1xc5elkl9" class="animable"></path><path d="M207.44,110.69a5.72,5.72,0,0,1-3.62,1.39,4.44,4.44,0,0,1-4-2.82,6.38,6.38,0,0,1-6.44-6.37c0-3.62,2.87-6.3,6.72-6.3s6.73,2.69,6.73,6.3a6.21,6.21,0,0,1-4.1,5.91,2,2,0,0,0,1.45.81,4,4,0,0,0,2.13-.92Zm-7.31-4.2a3.57,3.57,0,1,0-3.43-3.59A3.51,3.51,0,0,0,200.13,106.49Z" style="fill: rgb(255, 255, 255); transform-origin: 200.41px 104.335px;" id="elpwvud0eqrw8" class="animable"></path><path d="M214.08,106.49a2.36,2.36,0,0,0,2.43-2.59V96.68h3.25v7.22c0,3.28-2.2,5.36-5.7,5.36s-5.77-2.08-5.77-5.36V96.68h3.25v7.22A2.42,2.42,0,0,0,214.08,106.49Z" style="fill: rgb(255, 255, 255); transform-origin: 214.025px 102.97px;" id="elatsy29scco" class="animable"></path><path d="M229.89,106.91h-5.38l-.87,2.21h-3.33l5.34-12.44H229l5.21,12.44h-3.46Zm-1-2.48-1.7-4.44-1.74,4.44Z" style="fill: rgb(255, 255, 255); transform-origin: 227.26px 102.9px;" id="elzeljbtsqmz" class="animable"></path><path d="M238.57,96.68v9.67h5.27v2.77h-8.52V96.68Z" style="fill: rgb(255, 255, 255); transform-origin: 239.58px 102.9px;" id="elcl46pwfcadm" class="animable"></path><path d="M248.56,96.68v12.44h-3.25V96.68Z" style="fill: rgb(255, 255, 255); transform-origin: 246.935px 102.9px;" id="elq5t0om1tpj" class="animable"></path><path d="M260.56,96.68v2.67h-3.73v9.77h-3.25V99.35h-3.69V96.68Z" style="fill: rgb(255, 255, 255); transform-origin: 255.225px 102.9px;" id="elq7cke1v8dwb" class="animable"></path><path d="M268.4,105.14v4h-3.24v-3.89l-4.58-8.55h3.25l2.94,5.34,2.88-5.34h3.24Z" style="fill: rgb(255, 255, 255); transform-origin: 266.735px 102.92px;" id="elrt339q753f" class="animable"></path><path d="M291.32,102.89c0,3.71-2.72,6.23-6.75,6.23h-5.23V96.68h5.36C288.64,96.68,291.32,99.2,291.32,102.89Zm-3.32,0a3.33,3.33,0,0,0-3.37-3.6h-2.05v7.17h2.21A3.25,3.25,0,0,0,288,102.92Z" style="fill: rgb(255, 255, 255); transform-origin: 285.33px 102.9px;" id="ellgkzhjgfjik" class="animable"></path><path d="M300.88,106.91h-5.37l-.87,2.21H291.3l5.34-12.44H300l5.21,12.44h-3.46Zm-1-2.48-1.7-4.44-1.74,4.44Z" style="fill: rgb(255, 255, 255); transform-origin: 298.255px 102.9px;" id="elbtn7l14kkho" class="animable"></path><path d="M311.87,105.14v4h-3.25v-3.89L304,96.68h3.25l2.95,5.34,2.87-5.34h3.25Z" style="fill: rgb(255, 255, 255); transform-origin: 310.16px 102.91px;" id="el7lakh4pzpu2" class="animable"></path><path d="M231.41,92.38l-1.61-5.32-1.64,5.32H227l-2.26-6.82H226l1.66,5.54,1.64-5.53h1.13L232,91.1l1.64-5.54h1.19l-2.28,6.82Z" style="fill: rgb(255, 255, 255); transform-origin: 229.785px 88.97px;" id="eli33kwn3m0b" class="animable"></path><path d="M242.28,89a3.61,3.61,0,1,1-3.61-3.44A3.48,3.48,0,0,1,242.28,89Zm-6.05,0a2.44,2.44,0,0,0,2.45,2.42A2.41,2.41,0,1,0,236.23,89Z" style="fill: rgb(255, 255, 255); transform-origin: 238.674px 89.1688px;" id="elhy3ms6a0qqj" class="animable"></path><path d="M249.65,92.38V87.29l-2.15,4.38h-.75l-2.15-4.38v5.09H243.5V85.56h1.37l2.25,4.53,2.24-4.53h1.35v6.82Z" style="fill: rgb(255, 255, 255); transform-origin: 247.105px 88.97px;" id="elpym6lzv848" class="animable"></path><path d="M253.65,86.6v1.84H257v1h-3.33v1.88h3.84v1h-5V85.56h4.86v1Z" style="fill: rgb(255, 255, 255); transform-origin: 255.01px 88.94px;" id="elbbc84z3ylel" class="animable"></path><path d="M263.67,92.38,260,87.49v4.89h-1.15V85.56H260l3.65,4.9v-4.9h1.13v6.82Z" style="fill: rgb(255, 255, 255); transform-origin: 261.815px 88.97px;" id="ella2u3k5t16j" class="animable"></path><path d="M267.35,86.19a.82.82,0,0,1-.17.5l-.56.84h-.57l.37-.84a.61.61,0,1,1,.93-.5Z" style="fill: rgb(255, 255, 255); transform-origin: 266.7px 86.5454px;" id="eljttzoroo76j" class="animable"></path><path d="M273.3,86.22l-.47,1a4,4,0,0,0-2-.63c-.67,0-1.11.25-1.11.71,0,1.49,3.68.69,3.67,3.14,0,1.22-1.07,2-2.57,2A4.19,4.19,0,0,1,268,91.34l.49-1a3.57,3.57,0,0,0,2.31,1c.8,0,1.27-.31,1.27-.83,0-1.52-3.67-.67-3.67-3.1,0-1.17,1-1.9,2.48-1.9A4.42,4.42,0,0,1,273.3,86.22Z" style="fill: rgb(255, 255, 255); transform-origin: 270.695px 88.975px;" id="elu2x5hy3ifte" class="animable"></path><rect x="281.73" y="88.25" width="38.83" height="1" style="fill: rgb(255, 255, 255); transform-origin: 301.145px 88.75px;" id="el5msai7w1wcd" class="animable"></rect><rect x="179.45" y="88.25" width="38.83" height="1" style="fill: rgb(255, 255, 255); transform-origin: 198.865px 88.75px;" id="el8ob3nrqpj2g" class="animable"></rect></g><defs>     <filter id="active" height="200%">         <feMorphology in="SourceAlpha" result="DILATED" operator="dilate" radius="2"></feMorphology>                <feFlood flood-color="#32DFEC" flood-opacity="1" result="PINK"></feFlood>        <feComposite in="PINK" in2="DILATED" operator="in" result="OUTLINE"></feComposite>        <feMerge>            <feMergeNode in="OUTLINE"></feMergeNode>            <feMergeNode in="SourceGraphic"></feMergeNode>        </feMerge>    </filter>    <filter id="hover" height="200%">        <feMorphology in="SourceAlpha" result="DILATED" operator="dilate" radius="2"></feMorphology>                <feFlood flood-color="#ff0000" flood-opacity="0.5" result="PINK"></feFlood>        <feComposite in="PINK" in2="DILATED" operator="in" result="OUTLINE"></feComposite>        <feMerge>            <feMergeNode in="OUTLINE"></feMergeNode>            <feMergeNode in="SourceGraphic"></feMergeNode>        </feMerge>            <feColorMatrix type="matrix" values="0   0   0   0   0                0   1   0   0   0                0   0   0   0   0                0   0   0   1   0 "></feColorMatrix>    </filter></defs></svg>